<?xml version="1.0" encoding="UTF-8" standalone="no"?>
<!-- Created with Inkscape (http://www.inkscape.org/) -->

<svg
   xmlns:dc="http://purl.org/dc/elements/1.1/"
   xmlns:cc="http://creativecommons.org/ns#"
   xmlns:rdf="http://www.w3.org/1999/02/22-rdf-syntax-ns#"
   xmlns:svg="http://www.w3.org/2000/svg"
   xmlns="http://www.w3.org/2000/svg"
   xmlns:xlink="http://www.w3.org/1999/xlink"
   xmlns:sodipodi="http://sodipodi.sourceforge.net/DTD/sodipodi-0.dtd"
   xmlns:inkscape="http://www.inkscape.org/namespaces/inkscape"
   width="228.57031"
   height="69.34375"
   viewBox="0 0 60.475893 18.347201"
   version="1.1"
   id="svg8"
   inkscape:version="0.92.3 (2405546, 2018-03-11)"
   sodipodi:docname="logo.svg">
  <defs
     id="defs2">
    <linearGradient
       inkscape:collect="always"
       id="linearGradient863">
      <stop
         style="stop-color:#ff004b;stop-opacity:1"
         offset="0"
         id="stop859" />
      <stop
         style="stop-color:#00a8ff;stop-opacity:1"
         offset="1"
         id="stop861" />
    </linearGradient>
    <linearGradient
       inkscape:collect="always"
       xlink:href="#linearGradient863"
       id="linearGradient865"
       x1="409.56396"
       y1="518.50385"
       x2="200.31245"
       y2="519.53113"
       gradientUnits="userSpaceOnUse" />
  </defs>
  <sodipodi:namedview
     id="base"
     pagecolor="#ffffff"
     bordercolor="#666666"
     borderopacity="1.0"
     inkscape:pageopacity="0.0"
     inkscape:pageshadow="2"
     inkscape:zoom="2.7249113"
     inkscape:cx="176.65879"
     inkscape:cy="29.144151"
     inkscape:document-units="mm"
     inkscape:current-layer="layer1"
     showgrid="false"
     units="px"
     fit-margin-left="10"
     fit-margin-top="10"
     fit-margin-right="10"
     fit-margin-bottom="10"
     inkscape:window-width="1920"
     inkscape:window-height="1017"
     inkscape:window-x="0"
     inkscape:window-y="30"
     inkscape:window-maximized="1" />
  <metadata
     id="metadata5">
    <rdf:RDF>
      <cc:Work
         rdf:about="">
        <dc:format>image/svg+xml</dc:format>
        <dc:type
           rdf:resource="http://purl.org/dc/dcmitype/StillImage" />
        <dc:title></dc:title>
      </cc:Work>
    </rdf:RDF>
  </metadata>
  <g
     inkscape:label="Capa 1"
     inkscape:groupmode="layer"
     id="layer1"
     transform="translate(-50.486323,-124.96653)">
    <path
       style="font-style:normal;font-variant:normal;font-weight:bold;font-stretch:normal;font-size:10.58333302px;line-height:0;font-family:KacstOne;-inkscape-font-specification:'KacstOne, Bold';font-variant-ligatures:normal;font-variant-caps:normal;font-variant-numeric:normal;font-feature-settings:normal;text-align:start;letter-spacing:-1.05833328px;word-spacing:0px;writing-mode:lr-tb;text-anchor:start;fill:url(#linearGradient865);fill-opacity:1;stroke:none;stroke-width:0.99999994"
       d="m 399.50781,482.31445 a 8.3947684,8.3947684 0 0 0 -8.39453,8.39649 8.3947684,8.3947684 0 0 0 8.39453,8.39453 8.3947684,8.3947684 0 0 0 8.39453,-8.39453 8.3947684,8.3947684 0 0 0 -8.39453,-8.39649 z m -17.70703,0.73438 a 7.2020692,7.2020692 0 0 0 -7.20117,7.20312 7.2020692,7.2020692 0 0 0 7.20117,7.20117 7.2020692,7.2020692 0 0 0 7.20313,-7.20117 7.2020692,7.2020692 0 0 0 -7.20313,-7.20312 z m -14.49609,9.26758 a 4.9084164,4.9084164 0 0 0 -4.90821,4.9082 4.9084164,4.9084164 0 0 0 4.90821,4.9082 4.9084164,4.9084164 0 0 0 4.91015,-4.9082 4.9084164,4.9084164 0 0 0 -4.91015,-4.9082 z m -48.58008,9.08789 c -3.51562,0 -6.21094,0.78126 -8.08594,2.34375 -1.60008,1.3334 -2.50953,3.15866 -2.74414,5.46875 h -7.08398 v -6.21094 h -6.99219 v 6.21094 h -3.47656 v 0.44336 c -0.85705,-0.27511 -1.71723,-0.5074 -2.58203,-0.65821 -1.10678,-0.20837 -2.23308,-0.3125 -3.37891,-0.3125 -3.94531,0 -7.03125,1.01563 -9.25781,3.04688 -2.22657,2.01822 -3.33985,4.83072 -3.33985,8.4375 0,3.60678 1.11328,6.42579 3.33985,8.45703 2.22656,2.01822 5.3125,3.02734 9.25781,3.02734 1.13281,0 2.25911,-0.10412 3.37891,-0.3125 1.13281,-0.1953 2.24609,-0.49478 3.33984,-0.89843 v -5.72266 c -0.83333,0.63803 -1.74479,1.11979 -2.73438,1.44531 -0.97656,0.32552 -2.01171,0.48828 -3.10546,0.48828 -1.95313,0 -3.47657,-0.56639 -4.57032,-1.69922 -1.08073,-1.14582 -1.62109,-2.74088 -1.62109,-4.78515 0,-2.04427 0.54036,-3.63283 1.62109,-4.76563 1.09375,-1.14585 2.61719,-1.71875 4.57032,-1.71875 1.02864,0 2.01822,0.15624 2.96875,0.46875 0.96354,0.31249 1.92057,0.79428 2.87109,1.44532 v -1.38672 h 2.71875 v 9.27734 c 0,2.76042 0.57292,4.72005 1.71875,5.87891 1.15885,1.14582 3.11849,1.71875 5.87891,1.71875 h 5.99609 v -5 h -3.59375 c -1.19792,0 -1.9987,-0.17578 -2.40234,-0.52735 -0.40365,-0.36457 -0.60547,-1.05467 -0.60547,-2.07031 v -9.27734 h 7.20703 v -1.8086 c 0.28247,1.41862 0.88358,2.61148 1.82031,3.56641 1.35417,1.36718 3.48958,2.36327 6.40625,2.98828 l 2.91016,0.64453 c 1.77083,0.39063 2.94922,0.83334 3.53515,1.32813 0.59896,0.49479 0.89844,1.19793 0.89844,2.10937 0,1.01564 -0.4362,1.79688 -1.30859,2.34375 -0.8724,0.54687 -2.12891,0.82031 -3.76953,0.82031 -1.61459,0 -3.29428,-0.24739 -5.03907,-0.74218 -1.73177,-0.50782 -3.52864,-1.25652 -5.39062,-2.2461 v 6.34766 c 1.86198,0.69009 3.72396,1.21093 5.58594,1.5625 1.86197,0.35155 3.71744,0.52734 5.5664,0.52734 3.91927,0 6.82943,-0.78126 8.73047,-2.34375 1.91406,-1.57553 2.87109,-3.97135 2.87109,-7.1875 0,-2.4479 -0.68359,-4.33593 -2.05078,-5.66406 -1.36718,-1.32813 -3.67187,-2.31771 -6.91406,-2.96875 l -3.20312,-0.64453 c -1.52344,-0.31249 -2.57813,-0.6836 -3.16407,-1.11328 -0.57291,-0.44271 -0.85937,-1.05469 -0.85937,-1.83594 0,-1.04166 0.42969,-1.8099 1.28906,-2.30469 0.85938,-0.49479 2.1875,-0.74218 3.98438,-0.74218 1.35416,0 2.79296,0.1823 4.3164,0.54687 1.52344,0.3646 3.08594,0.90495 4.6875,1.62109 v -6.17187 c -1.80989,-0.48181 -3.5612,-0.83989 -5.2539,-1.07422 -1.69271,-0.24743 -3.33985,-0.37109 -4.94141,-0.37109 z m -117.91016,0.52734 v 29.16016 h 7.51953 v -11.03516 h 2.12891 c 1.22396,0 2.20052,0.26691 2.92969,0.80078 0.74219,0.53385 1.47135,1.52994 2.1875,2.98828 l 3.55469,7.2461 h 8.00781 l -4.08203,-8.28125 c -0.83334,-1.67968 -1.66016,-2.92967 -2.48047,-3.75 -0.80729,-0.83336 -1.72526,-1.36723 -2.75391,-1.60157 1.875,-0.58595 3.27474,-1.49741 4.19922,-2.73437 0.9375,-1.23699 1.40625,-2.81901 1.40625,-4.74609 0,-2.78645 -0.89844,-4.82421 -2.69531,-6.11329 -1.78386,-1.28907 -4.59636,-1.93359 -8.4375,-1.93359 z m 158.87696,0.66016 a 1.6973029,1.6973029 0 0 0 -1.69727,1.69726 1.6973029,1.6973029 0 0 0 1.69727,1.69727 1.6973029,1.6973029 0 0 0 1.69726,-1.69727 1.6973029,1.6973029 0 0 0 -1.69726,-1.69726 z m -25.9043,0.41406 v 6.21094 h -3.47656 v 5 h 3.47656 v 9.27734 c 0,2.76042 0.57292,4.72005 1.71875,5.87891 1.15886,1.14582 3.11849,1.71875 5.87891,1.71875 h 5.99609 v -5 h -3.59375 c -1.19792,0 -1.9987,-0.17578 -2.40234,-0.52735 -0.40365,-0.36457 -0.60547,-1.05467 -0.60547,-2.07031 v -9.27734 h 7.18359 c -0.87628,1.66405 -1.32031,3.64786 -1.32031,5.95703 0,3.59375 1.0612,6.40625 3.18359,8.4375 2.13542,2.03124 5.09115,3.04687 8.86719,3.04687 3.76302,0 6.69922,-1.01563 8.80859,-3.04687 2.1224,-2.03125 3.1836,-4.84375 3.1836,-8.4375 0,-3.59375 -1.0612,-6.40626 -3.1836,-8.4375 -2.10937,-2.03125 -5.04557,-3.04688 -8.80859,-3.04688 -3.77604,0 -6.73177,1.01563 -8.86719,3.04688 -0.74756,0.71546 -1.35559,1.53209 -1.83984,2.4414 v -4.96093 h -7.20703 v -6.21094 z m -125.45313,4.375 h 3.16407 c 1.57552,0 2.70182,0.28645 3.3789,0.85937 0.69011,0.57293 1.03516,1.52344 1.03516,2.85157 0,1.34112 -0.34505,2.30467 -1.03516,2.89062 -0.67708,0.58593 -1.80338,0.87891 -3.3789,0.87891 h -3.16407 z m 29.4375,1.30859 c -3.77604,0 -6.74479,1.02214 -8.90625,3.06641 -2.14844,2.04427 -3.22265,4.85027 -3.22265,8.41797 0,3.6328 1.09375,6.45832 3.28125,8.47656 2.20052,2.00519 5.27994,3.00781 9.23828,3.00781 1.65364,0 3.30729,-0.16276 4.96094,-0.48828 1.65364,-0.31249 3.30729,-0.78124 4.96093,-1.40625 v -5.39062 c -1.6276,0.88541 -3.21614,1.54948 -4.76562,1.99218 -1.53646,0.42971 -3.04036,0.64454 -4.51172,0.64454 -1.82292,0 -3.24219,-0.41014 -4.25781,-1.23047 -1.01563,-0.82031 -1.60807,-2.05079 -1.77735,-3.69141 h 16.3125 c -0.21612,0.73134 -0.33203,1.54197 -0.33203,2.44141 0,2.10938 0.70313,3.82812 2.10938,5.15625 1.41927,1.3151 3.26172,1.97265 5.52734,1.97265 1.67969,0 3.10547,-0.29948 4.27735,-0.89843 1.17187,-0.61199 2.22656,-1.58203 3.16406,-2.91016 v 3.24219 h 7.05078 v -12.48047 c 0,-3.50262 -0.87891,-6.02865 -2.63672,-7.57813 -1.74479,-1.56248 -4.58984,-2.34375 -8.53516,-2.34375 -1.51041,0 -3.02083,0.0977 -4.53125,0.29297 -1.51041,0.1823 -3.01432,0.45574 -4.51171,0.82031 v 5.33204 c 1.10676,-0.59896 2.30468,-1.04817 3.59375,-1.34766 1.28906,-0.29947 2.68229,-0.44922 4.17968,-0.44922 1.84896,0 3.20964,0.26043 4.08203,0.78125 0.8724,0.50782 1.3086,1.3151 1.3086,2.42188 v 0.54687 h -4.1211 c -3.77604,0 -6.54947,0.59894 -8.32031,1.79688 -1.10291,0.75161 -1.85862,1.77266 -2.26953,3.0625 v -1.85157 c 0,-3.46353 -1.03516,-6.23045 -3.10547,-8.30078 -2.05729,-2.0703 -4.80469,-3.10547 -8.24219,-3.10547 z m 148.28907,0 c -1.62762,0 -3.02734,0.33203 -4.19922,0.9961 -1.15886,0.65103 -2.18752,1.69271 -3.08594,3.125 v -3.59375 h -6.99219 v 21.875 h 6.99219 v -10.07813 c 0,-2.14843 0.48179,-3.79558 1.44531,-4.9414 0.97656,-1.15886 2.36327,-1.73829 4.16016,-1.73829 0.61198,0 1.21745,0.0717 1.81641,0.21485 0.26504,0.0564 0.52987,0.135 0.79492,0.2207 -0.71442,1.55074 -1.08399,3.34697 -1.08399,5.4043 0,3.6328 1.09376,6.45832 3.28125,8.47656 2.20052,2.00519 5.27993,3.00781 9.23828,3.00781 1.65365,0 3.3073,-0.16276 4.96094,-0.48828 1.65365,-0.31249 3.3073,-0.78124 4.96094,-1.40625 v -5.39062 c -1.62759,0.88541 -3.21615,1.54948 -4.76563,1.99218 -1.53647,0.42971 -3.04037,0.64454 -4.51171,0.64454 -1.82292,0 -3.24218,-0.41014 -4.25782,-1.23047 -1.01556,-0.82031 -1.60802,-2.05079 -1.77734,-3.69141 h 16.34766 v -1.99219 c 0,-3.46353 -1.03515,-6.23045 -3.10547,-8.30078 -2.0573,-2.0703 -4.80471,-3.10547 -8.24219,-3.10547 -3.77605,0 -6.74479,1.02214 -8.90625,3.06641 -0.41162,0.39166 -0.77076,0.82 -1.10352,1.26758 l -0.0137,-4.17774 c -0.52084,-0.0655 -0.91797,-0.10459 -1.1914,-0.11718 -0.27347,-0.026 -0.52739,-0.0391 -0.76172,-0.0391 z m -148.32813,4.64844 c 1.25,0 2.25912,0.41016 3.02735,1.23047 0.78125,0.80728 1.17187,1.875 1.17187,3.20312 h -9.08203 c 0.20833,-1.43229 0.73568,-2.52605 1.58203,-3.28125 0.84636,-0.76822 1.94661,-1.15234 3.30078,-1.15234 z m 160.26563,0 c 1.24999,0 2.25911,0.41016 3.02734,1.23047 0.78125,0.80728 1.17188,1.875 1.17188,3.20312 h -9.08204 c 0.20833,-1.43229 0.73567,-2.52605 1.58204,-3.28125 0.84633,-0.76822 1.9466,-1.15234 3.30078,-1.15234 z m -39.30469,0.35156 c 1.52344,0 2.6888,0.55989 3.49609,1.67969 0.8073,1.10677 1.21094,2.70834 1.21094,4.80469 0,2.09635 -0.40364,3.70442 -1.21094,4.82422 -0.80729,1.10677 -1.97265,1.66015 -3.49609,1.66015 -1.54948,0 -2.73438,-0.55338 -3.55469,-1.66015 -0.80729,-1.1198 -1.21094,-2.72787 -1.21094,-4.82422 0,-2.09635 0.40365,-3.69792 1.21094,-4.80469 0.82031,-1.1198 2.00521,-1.67969 3.55469,-1.67969 z m -98.49609,7.5586 h 3.63281 v 0.80078 c 0,1.41929 -0.44922,2.60416 -1.34766,3.55469 -0.89844,0.93749 -2.00521,1.40625 -3.32031,1.40625 -1.05469,0 -1.88151,-0.24738 -2.48047,-0.74219 -0.58594,-0.50779 -0.87891,-1.20443 -0.87891,-2.08985 0,-0.96355 0.36459,-1.69271 1.09375,-2.1875 0.74219,-0.49479 1.84245,-0.74218 3.30079,-0.74218 z"
       transform="scale(0.26458333)"
       id="path819"
       inkscape:connector-curvature="0" />
  </g>
</svg>
